<?xml version="1.0" standalone="no"?>
<!DOCTYPE svg PUBLIC "-//W3C//DTD SVG 20010904//EN"
 "http://www.w3.org/TR/2001/REC-SVG-20010904/DTD/svg10.dtd">
<svg version="1.0" xmlns="http://www.w3.org/2000/svg"
 width="1536.000000pt" height="1024.000000pt" viewBox="0 0 1536.000000 1024.000000"
 preserveAspectRatio="xMidYMid meet">
<metadata>
Created by potrace 1.15, written by Peter Selinger 2001-2017
</metadata>
<g transform="translate(0.000000,1024.000000) scale(0.100000,-0.100000)"
fill="#000000" stroke="none">
<path d="M8066 7624 c-98 -24 -192 -80 -283 -170 -80 -79 -85 -82 -190 -118
-59 -21 -531 -186 -1048 -368 -984 -345 -1147 -402 -1565 -549 -328 -115 -366
-134 -460 -228 -64 -64 -85 -94 -133 -191 -38 -77 -66 -153 -86 -230 -51 -201
-56 -253 -55 -560 0 -243 4 -306 23 -429 60 -387 188 -739 369 -1011 168 -254
339 -400 557 -477 78 -27 84 -28 280 -26 110 1 373 6 585 12 212 6 637 18 945
26 308 9 780 22 1049 30 474 13 491 13 564 -6 90 -23 165 -24 250 -4 74 18
110 35 174 83 48 36 119 127 137 175 7 18 35 38 93 68 60 31 104 64 159 118
118 118 169 243 169 416 0 95 -13 159 -48 238 -21 48 -22 50 -4 155 27 169 24
631 -7 857 -63 471 -173 885 -327 1234 -272 618 -644 974 -1013 970 -42 0
-102 -7 -135 -15z m269 -265 c309 -115 626 -598 810 -1234 56 -193 118 -501
145 -715 23 -180 37 -545 26 -652 l-8 -68 -36 19 c-55 28 -159 58 -230 66 -35
4 -65 12 -66 19 -2 6 -9 33 -15 60 -55 228 -288 395 -503 359 -232 -39 -386
-206 -405 -438 l-6 -70 -83 -40 -84 -40 -31 85 c-75 207 -152 571 -186 887
-24 223 -24 691 0 863 67 479 218 802 420 896 69 32 172 33 252 3z m-835 -406
c-16 -49 -40 -144 -55 -213 -14 -69 -29 -136 -33 -150 -7 -23 -37 -34 -367
-138 -198 -62 -601 -190 -895 -284 -294 -93 -614 -195 -710 -225 -96 -30 -336
-106 -534 -169 -197 -63 -362 -114 -366 -114 -13 0 29 139 66 217 41 86 120
176 183 207 51 26 296 112 1676 591 517 179 963 334 990 345 28 10 55 19 61
19 8 1 2 -31 -16 -86z m-120 -1015 c0 -79 12 -257 26 -392 l6 -61 -198 -47
c-799 -191 -1432 -342 -2007 -479 -368 -87 -672 -159 -677 -159 -11 0 -31 177
-33 299 l-2 103 1420 408 c781 225 1430 409 1443 409 21 1 22 -2 22 -81z
m1224 -989 c94 -49 136 -122 145 -254 7 -102 22 -134 73 -161 28 -14 40 -15
98 -4 161 30 334 -52 408 -195 20 -39 26 -69 30 -135 5 -109 -18 -177 -88
-253 -53 -58 -106 -89 -185 -106 -64 -15 -100 -52 -109 -114 -14 -95 -98 -164
-214 -174 -100 -9 -200 51 -238 144 -9 21 -13 62 -12 113 2 67 -1 84 -18 107
-33 45 -70 59 -119 43 -205 -65 -405 44 -422 229 -14 156 70 270 224 306 43
10 65 22 87 46 28 32 29 34 22 115 -13 170 38 264 164 305 31 10 124 3 154
-12z m-1079 -61 c11 -52 94 -305 132 -401 19 -49 32 -91 29 -95 -5 -4 -2224
-284 -2880 -363 -28 -4 -32 1 -63 61 -39 78 -113 262 -113 283 0 9 12 18 28
21 15 3 430 81 922 172 492 91 1120 207 1395 259 275 51 510 93 522 94 16 1
23 -6 28 -31z m355 -1052 c82 -77 192 -121 331 -132 63 -6 79 -10 79 -23 1 -9
7 -32 14 -53 l13 -36 -161 -6 c-89 -4 -424 -13 -746 -21 -322 -9 -810 -22
-1085 -30 -275 -8 -606 -18 -736 -21 -223 -7 -239 -6 -306 15 -62 18 -211 104
-228 130 -5 9 64 16 710 67 242 19 699 55 1015 80 316 25 645 51 730 58 85 7
193 14 239 15 l84 1 47 -44z"/>
<path d="M10409 4041 c-135 -43 -254 -176 -275 -308 -6 -37 -10 -42 -65 -67
-84 -38 -171 -123 -211 -204 -31 -63 -33 -73 -33 -177 0 -103 2 -114 32 -177
88 -186 274 -271 495 -227 53 11 58 10 90 -14 163 -122 399 -143 582 -50 72
36 151 121 189 200 30 63 32 76 32 173 0 96 -2 110 -29 163 -35 68 -122 155
-193 190 l-51 26 -4 88 c-3 72 -10 100 -35 155 -54 114 -149 199 -262 232 -72
21 -191 20 -262 -3z m255 -255 c22 -16 47 -49 58 -74 20 -45 21 -93 2 -218
-12 -80 31 -123 138 -138 91 -13 158 -88 158 -176 0 -77 -58 -144 -150 -175
-101 -33 -266 9 -309 79 -31 49 -65 76 -105 83 -30 5 -46 0 -95 -31 -51 -31
-67 -36 -121 -36 -67 0 -101 14 -142 57 -33 35 -48 73 -48 124 0 103 75 175
201 193 32 5 54 15 74 36 25 27 29 38 31 102 3 106 23 148 89 190 24 15 45 18
106 16 65 -3 81 -7 113 -32z"/>
<path d="M9297 3209 c-82 -19 -172 -79 -217 -144 -26 -37 -33 -41 -92 -52
-134 -22 -250 -110 -306 -230 -23 -50 -27 -71 -27 -153 0 -82 4 -103 27 -152
70 -150 228 -246 387 -236 61 4 68 3 98 -23 123 -106 287 -135 419 -75 59 27
136 93 170 147 84 133 64 336 -42 428 -33 30 -34 33 -25 69 14 47 14 146 1
192 -27 98 -117 185 -229 220 -67 21 -103 23 -164 9z m121 -249 c56 -34 66
-96 32 -191 -28 -80 -16 -115 58 -169 71 -51 91 -123 52 -187 -28 -46 -63 -65
-118 -65 -63 0 -104 22 -141 76 -36 52 -75 70 -133 62 -134 -19 -144 -19 -185
3 -49 24 -79 60 -94 111 -30 101 54 179 194 180 40 0 80 6 96 15 26 13 61 67
61 93 0 16 51 73 74 82 35 14 69 11 104 -10z"/>
</g>
</svg>
