<?xml version="1.0" standalone="no"?>
<!DOCTYPE svg PUBLIC "-//W3C//DTD SVG 20010904//EN"
 "http://www.w3.org/TR/2001/REC-SVG-20010904/DTD/svg10.dtd">
<svg version="1.0" xmlns="http://www.w3.org/2000/svg"
 width="1536.000000pt" height="1024.000000pt" viewBox="0 0 1536.000000 1024.000000"
 preserveAspectRatio="xMidYMid meet">
<metadata>
Created by potrace 1.15, written by Peter Selinger 2001-2017
</metadata>
<g transform="translate(0.000000,1024.000000) scale(0.100000,-0.100000)"
fill="#000000" stroke="none">
<path d="M8145 7659 c-32 -5 -75 -14 -95 -20 -74 -24 -191 -93 -252 -148 l-63
-58 -965 -361 c-531 -198 -1215 -453 -1520 -567 -404 -149 -570 -216 -610
-243 -164 -112 -297 -402 -341 -749 -17 -129 -17 -460 0 -598 43 -362 126
-649 273 -935 186 -364 429 -591 714 -665 78 -20 229 -19 884 5 294 11 789 29
1100 40 311 10 607 22 659 25 l93 5 50 -45 c102 -92 242 -135 370 -115 39 6
75 13 80 16 4 3 39 -7 76 -22 124 -50 281 -30 379 47 55 44 110 129 123 193
10 51 14 56 48 67 98 31 182 108 247 224 20 36 41 65 48 65 20 0 105 79 139
128 18 26 42 71 54 100 20 50 26 56 76 76 163 66 277 210 301 381 32 221 -97
435 -308 511 l-60 22 -6 173 c-11 300 -46 553 -115 839 -221 920 -681 1537
-1200 1610 -84 11 -94 11 -179 -1z m243 -265 c107 -35 182 -84 285 -183 372
-358 637 -1064 712 -1898 l7 -73 -57 35 c-54 32 -112 55 -178 69 -27 6 -27 7
-22 69 23 235 -144 475 -366 526 -111 26 -244 7 -354 -49 l-60 -31 -20 28
c-41 58 -105 119 -157 150 -153 92 -358 79 -526 -33 -35 -24 -66 -44 -68 -44
-7 0 -4 139 7 292 42 608 250 1060 528 1149 83 27 177 24 269 -7z m-904 -408
c-24 -63 -56 -163 -72 -223 l-28 -108 -124 -43 c-449 -157 -2662 -903 -2666
-899 -7 7 30 126 56 182 36 80 81 139 127 169 21 13 229 95 463 182 234 87
844 314 1355 506 512 191 931 347 931 348 1 0 -18 -51 -42 -114z m-149 -1098
c4 -134 8 -268 9 -298 l1 -54 -110 -26 c-503 -121 -941 -227 -1284 -311 -790
-195 -1384 -339 -1387 -337 -13 13 -33 382 -22 394 3 2 126 43 274 90 980 311
1493 473 1949 614 286 89 522 164 524 166 2 2 12 4 21 4 15 0 18 -25 25 -242z
m676 -39 c85 -26 152 -112 171 -220 15 -85 47 -119 113 -119 40 0 51 5 79 33
96 103 114 120 142 138 18 10 56 24 86 30 84 17 157 -7 224 -74 97 -97 100
-227 8 -336 -23 -28 -29 -44 -29 -84 0 -41 4 -53 28 -73 28 -24 31 -24 147
-18 134 8 190 -4 268 -58 55 -38 78 -75 91 -151 18 -100 69 -132 170 -106 44
11 58 10 107 -5 63 -20 118 -69 149 -131 28 -56 26 -165 -3 -221 -32 -62 -105
-122 -171 -140 -114 -31 -138 -51 -156 -131 -3 -18 -10 -33 -14 -33 -4 0 -24
24 -44 53 -102 148 -313 229 -490 188 l-38 -9 -25 50 c-71 141 -239 230 -404
214 -174 -16 -342 -172 -369 -344 -4 -29 -10 -55 -13 -58 -8 -8 -61 80 -121
201 -117 236 -217 560 -272 882 -30 181 -31 204 -5 277 61 179 226 288 371
245z m-511 -1034 c27 -88 61 -191 75 -230 47 -121 47 -123 17 -129 -95 -20
-2721 -356 -2778 -356 -18 0 -29 17 -64 95 -38 88 -90 229 -90 246 0 3 107 27
238 53 395 76 860 166 992 191 69 13 211 41 315 61 548 106 1222 232 1233 231
9 -1 33 -65 62 -162z m1025 -424 c70 -32 106 -87 120 -185 9 -60 52 -113 100
-122 28 -5 50 2 120 36 77 39 90 42 139 37 161 -16 250 -159 185 -295 -31 -63
-80 -92 -172 -101 -123 -11 -153 -45 -142 -160 6 -59 4 -70 -17 -101 -29 -43
-61 -60 -115 -60 -35 0 -50 7 -88 40 -56 49 -88 51 -170 14 -107 -49 -229 -15
-298 83 -77 109 -22 253 119 313 27 12 52 32 64 52 34 55 26 91 -35 159 -99
110 -52 266 89 300 48 11 58 10 101 -10z m-584 -467 c19 -32 20 -37 6 -67 -28
-59 -39 -113 -36 -169 l4 -56 -130 -6 c-314 -15 -2209 -86 -2296 -86 -123 0
-199 23 -299 89 -78 51 -143 111 -121 111 7 0 200 15 429 34 229 19 622 51
872 72 250 20 696 58 990 83 332 29 540 44 547 38 7 -5 22 -25 34 -43z"/>
<path d="M10570 4128 c-151 -24 -276 -136 -321 -286 -11 -38 -18 -45 -74 -72
-72 -34 -146 -108 -178 -178 -33 -71 -31 -197 5 -274 37 -80 105 -149 181
-184 53 -24 75 -28 153 -29 89 0 92 -1 129 -34 81 -71 201 -107 325 -98 189
13 349 136 401 309 53 175 -13 357 -155 425 -33 15 -34 18 -38 87 -14 212
-213 368 -428 334z m137 -248 c60 -36 76 -100 52 -210 -15 -69 8 -109 71 -128
110 -32 150 -73 150 -151 0 -116 -98 -201 -230 -201 -65 1 -124 31 -184 97
-59 63 -53 61 -198 48 -64 -6 -82 -5 -103 9 -65 43 -84 132 -40 185 26 30 58
44 126 55 45 8 76 36 88 84 6 20 17 62 26 93 17 66 46 106 89 125 46 20 116
17 153 -6z"/>
<path d="M9533 3396 c-87 -28 -164 -96 -205 -181 -19 -39 -29 -47 -72 -61
-139 -45 -233 -124 -289 -242 -28 -59 -32 -77 -32 -152 0 -71 5 -95 27 -141
34 -73 89 -134 152 -167 43 -23 65 -27 143 -28 l92 -2 38 -39 c81 -84 205
-130 326 -120 139 12 276 107 340 236 29 60 32 74 32 161 0 84 -3 102 -28 153
-19 37 -48 74 -83 105 -55 47 -55 47 -49 93 8 56 -9 157 -36 215 -66 139 -222
214 -356 170z m110 -227 c33 -15 48 -44 54 -104 4 -36 0 -69 -11 -101 -23 -69
-21 -107 10 -137 14 -14 39 -29 55 -32 42 -9 84 -48 103 -96 40 -99 -49 -208
-171 -209 -80 0 -128 32 -169 112 -29 58 -53 72 -108 64 -101 -15 -174 -18
-195 -7 -57 31 -66 132 -17 196 39 51 93 75 166 75 102 0 119 16 160 152 13
42 60 98 84 98 8 0 26 -5 39 -11z"/>
<path d="M7627 3016 c-85 -31 -154 -112 -177 -208 -19 -78 -8 -177 25 -235 16
-26 46 -84 68 -127 50 -103 130 -184 210 -214 156 -59 316 7 404 166 20 37 44
76 54 87 36 41 59 108 59 176 0 54 -6 77 -31 127 -51 102 -128 152 -249 160
-62 4 -87 12 -148 43 -81 43 -143 50 -215 25z m169 -267 l47 -41 78 7 c75 7
79 6 103 -18 28 -28 27 -42 -10 -92 -12 -16 -30 -50 -41 -75 -25 -56 -51 -79
-94 -86 -61 -9 -129 56 -129 125 0 10 -18 41 -40 67 -31 37 -40 57 -40 86 0
77 55 89 126 27z"/>
</g>
</svg>
