<?xml version="1.0" standalone="no"?>
<!DOCTYPE svg PUBLIC "-//W3C//DTD SVG 20010904//EN"
 "http://www.w3.org/TR/2001/REC-SVG-20010904/DTD/svg10.dtd">
<svg version="1.0" xmlns="http://www.w3.org/2000/svg"
 width="1536.000000pt" height="1024.000000pt" viewBox="0 0 1536.000000 1024.000000"
 preserveAspectRatio="xMidYMid meet">
<metadata>
Created by potrace 1.15, written by Peter Selinger 2001-2017
</metadata>
<g transform="translate(0.000000,1024.000000) scale(0.100000,-0.100000)"
fill="#000000" stroke="none">
<path d="M6939 8130 c-270 -31 -540 -164 -713 -351 -153 -165 -235 -369 -236
-589 l-1 -85 -50 -35 c-80 -56 -127 -137 -154 -262 l-5 -28 -228 0 c-261 0
-327 -10 -442 -66 -103 -51 -213 -161 -264 -264 -70 -144 -67 -42 -64 -1828
l3 -1607 22 -65 c56 -162 165 -290 312 -363 56 -29 114 -49 157 -56 51 -9 675
-11 2344 -9 l2275 3 58 22 c85 33 166 78 218 123 63 54 134 160 167 250 l27
75 3 1624 c3 1796 7 1672 -62 1816 -58 122 -156 220 -281 280 -139 66 -124 65
-1044 65 -515 0 -839 4 -855 10 -14 5 -26 15 -26 22 0 27 -59 136 -102 189
-40 49 -47 64 -53 120 -23 197 -124 406 -264 544 l-60 60 -1 76 c0 160 -94
255 -303 308 -91 24 -270 33 -378 21z m623 -587 c119 -128 191 -286 219 -474
11 -77 15 -88 54 -129 61 -66 93 -126 116 -221 44 -174 7 -405 -91 -574 -128
-218 -334 -360 -605 -416 -76 -16 -282 -16 -360 0 -219 45 -416 154 -551 305
-147 164 -212 344 -168 466 23 64 14 81 -52 96 -90 20 -131 50 -159 117 -57
137 68 289 205 248 20 -6 58 -29 83 -51 25 -22 53 -40 63 -40 45 0 147 116
209 237 49 97 68 159 100 321 16 82 32 142 39 142 6 0 36 -7 66 -15 81 -22
269 -45 365 -45 118 0 227 17 320 50 44 15 85 28 91 29 6 1 31 -20 56 -46z
m2259 -1174 c56 -14 114 -62 140 -116 l24 -48 0 -1585 0 -1585 -22 -40 c-12
-22 -36 -54 -55 -72 -56 -54 -99 -63 -295 -63 -163 0 -175 1 -168 18 5 9 25
67 46 127 77 221 105 428 96 714 -19 620 -252 1223 -660 1711 -230 276 -492
488 -788 635 -52 26 -96 49 -98 51 -2 1 10 36 27 76 16 40 35 98 42 128 7 30
14 57 15 60 5 9 1659 -1 1696 -11z m-4164 -32 c18 -10 37 -26 43 -36 5 -11 10
-73 10 -138 l0 -119 -99 -92 -100 -92 -118 0 c-202 0 -223 23 -223 248 0 241
15 253 300 248 123 -2 162 -6 187 -19z m463 -285 c53 -86 221 -251 323 -317
184 -119 359 -174 583 -182 225 -9 379 23 556 114 111 57 193 120 290 221 l76
80 75 -32 c95 -42 260 -141 373 -225 259 -191 575 -592 754 -956 171 -348 258
-692 267 -1052 9 -317 -32 -552 -132 -771 l-34 -72 -1563 2 -1563 3 -51 27
c-112 59 -173 190 -174 367 l0 73 45 -6 c258 -39 696 -31 1007 18 83 14 90 13
167 -9 44 -13 101 -27 125 -30 52 -8 50 -4 70 -134 18 -109 33 -138 78 -146
18 -3 300 -5 625 -3 l592 3 22 22 c24 24 21 6 194 1058 53 319 95 595 93 614
-4 41 -38 70 -86 73 -31 2 -32 4 -25 33 16 60 7 147 -20 200 -33 66 -102 129
-165 151 -34 12 -53 25 -56 39 -9 35 -78 107 -120 126 -25 11 -64 19 -101 19
l-60 0 -18 49 c-18 53 -77 119 -129 148 -25 13 -55 18 -124 18 -83 0 -94 -2
-140 -30 -28 -18 -63 -52 -82 -80 -30 -45 -38 -50 -96 -65 -105 -26 -179 -88
-209 -174 -11 -32 -24 -44 -82 -74 -115 -61 -172 -164 -163 -293 l4 -59 -38 0
c-52 0 -96 -24 -104 -57 -4 -15 3 -96 16 -182 l23 -155 -54 -49 c-30 -27 -69
-60 -86 -74 l-33 -25 -112 27 c-62 15 -185 49 -273 75 -88 27 -197 58 -242 71
-45 12 -80 26 -77 30 7 12 101 524 109 594 8 71 -9 101 -62 111 -27 5 -37 1
-61 -22 -25 -26 -31 -47 -57 -186 -15 -87 -33 -158 -38 -158 -5 0 -42 12 -81
26 -203 73 -447 105 -649 86 -67 -7 -162 -20 -212 -31 -49 -10 -92 -17 -94
-15 -2 2 12 54 32 117 41 126 115 284 184 391 148 229 408 499 653 675 47 33
87 61 90 60 3 0 21 -26 40 -57z m1959 -636 c62 -32 79 -107 40 -176 l-22 -38
44 -51 c24 -28 50 -51 58 -51 21 0 51 30 51 50 0 32 39 70 71 70 74 0 127 -61
114 -134 -14 -83 -12 -91 15 -89 14 1 46 7 73 14 41 11 52 10 83 -4 55 -27 82
-117 53 -180 -14 -30 -47 -37 -176 -37 l-93 0 0 35 c0 39 -30 107 -63 142 -47
51 -125 50 -149 -3 -12 -25 -10 -29 37 -70 46 -39 49 -44 39 -71 l-9 -28 -220
-2 c-121 -2 -314 0 -430 5 l-210 7 0 57 c0 48 5 62 31 95 43 54 86 63 155 34
46 -20 53 -21 67 -7 14 13 13 22 -6 79 -32 97 -7 161 72 187 28 9 41 9 62 -2
33 -16 83 -108 91 -166 5 -39 4 -41 -30 -56 -53 -22 -85 -94 -55 -124 18 -18
52 -15 102 10 43 21 47 21 87 5 30 -12 47 -14 60 -6 27 14 24 61 -5 96 -19 23
-24 42 -27 103 -4 70 -8 81 -52 150 -56 88 -58 114 -8 147 40 27 107 31 150 9z
m-2324 -676 c97 -14 228 -47 303 -78 55 -21 63 -28 58 -46 -3 -11 -11 -45 -17
-73 l-12 -53 -78 0 c-86 0 -247 -44 -290 -79 -29 -24 -31 -81 -4 -111 23 -25
60 -24 165 5 131 35 287 12 698 -104 172 -49 368 -91 422 -91 30 0 54 11 105
45 l66 46 30 -26 c41 -33 78 -32 236 7 112 28 146 32 268 32 125 1 145 -1 189
-21 46 -22 48 -24 42 -55 -8 -39 -16 -44 -86 -59 -138 -28 -257 -61 -280 -78
-31 -22 -37 -62 -14 -86 15 -15 32 -17 117 -13 90 5 185 -6 240 -27 23 -10 23
-66 -2 -96 -16 -21 -31 -23 -176 -34 -153 -11 -159 -13 -182 -39 -28 -33 -29
-47 -4 -77 19 -23 24 -24 131 -21 145 4 172 -1 168 -36 -4 -35 -41 -55 -158
-87 -183 -50 -373 -44 -554 16 l-90 30 -130 -20 c-232 -35 -371 -44 -633 -38
-253 5 -340 16 -498 62 -340 99 -599 353 -680 665 -24 94 -37 248 -30 358 l7
104 33 14 c46 19 179 53 250 63 84 12 307 13 390 1z m1765 -247 l0 -138 -78
-22 c-42 -12 -84 -24 -92 -27 -13 -6 -20 16 -39 131 -13 76 -25 150 -28 166
l-5 27 121 0 121 0 0 -137z m417 1 c-3 -75 -7 -138 -10 -140 -4 -4 -74 4 -175
22 l-33 5 2 119 1 119 32 4 c17 2 67 5 110 5 l79 2 -6 -136z m419 64 c-29
-295 -89 -954 -101 -1128 -9 -118 -18 -221 -20 -227 -3 -9 -27 -13 -75 -13
l-70 0 0 93 c0 50 5 205 10 342 5 138 14 365 20 505 5 140 12 308 16 373 l6
117 110 0 110 0 -6 -62z m389 40 c-4 -20 -84 -505 -198 -1211 -24 -152 -35
-196 -45 -192 -8 3 -33 5 -56 5 l-42 0 23 243 c12 133 41 438 63 677 22 239
43 450 46 468 l5 32 105 0 c103 0 104 0 99 -22z m-3221 -1132 c55 -30 120 -60
144 -67 l43 -13 -3 -152 c-4 -213 -5 -214 -278 -214 -251 0 -260 10 -260 270
0 91 4 170 10 180 19 36 60 49 154 50 88 0 88 0 190 -54z m2386 -140 c0 -40
-3 -88 -6 -105 -6 -30 -8 -31 -60 -31 -29 0 -55 4 -58 8 -2 4 -6 41 -7 81 l-2
74 59 22 c32 13 62 23 67 24 4 0 7 -32 7 -73z m-320 -81 l0 -55 -55 0 c-37 0
-55 4 -55 13 0 6 -3 29 -6 49 -6 36 -6 37 32 41 91 9 84 13 84 -48z"/>
<path d="M7454 7166 c-40 -40 -45 -83 -14 -133 33 -54 130 -63 173 -15 68 75
21 182 -80 182 -38 0 -50 -5 -79 -34z"/>
<path d="M6904 7151 c-36 -22 -58 -75 -49 -114 10 -39 58 -78 101 -83 103 -13
163 111 90 184 -33 34 -100 40 -142 13z"/>
<path d="M7342 6954 c-48 -33 -13 -92 69 -114 82 -22 132 -96 109 -164 -25
-77 -137 -152 -244 -163 -98 -10 -216 48 -255 126 -35 68 -87 64 -141 -11 -40
-55 -40 -93 0 -116 17 -9 56 -36 88 -59 141 -104 309 -120 472 -45 80 37 181
141 208 215 70 186 -42 347 -240 347 -24 0 -54 -7 -66 -16z"/>
<path d="M7474 6181 c-129 -102 -224 -115 -339 -46 -32 19 -68 35 -81 35 -58
0 -84 -81 -43 -133 11 -15 50 -41 86 -58 119 -57 259 -50 386 19 61 33 127
104 127 136 0 30 -45 86 -70 86 -9 0 -39 -17 -66 -39z"/>
</g>
</svg>
