<?xml version="1.0" standalone="no"?>
<!DOCTYPE svg PUBLIC "-//W3C//DTD SVG 20010904//EN"
 "http://www.w3.org/TR/2001/REC-SVG-20010904/DTD/svg10.dtd">
<svg version="1.0" xmlns="http://www.w3.org/2000/svg"
 width="1024.000000pt" height="1536.000000pt" viewBox="0 0 1024.000000 1536.000000"
 preserveAspectRatio="xMidYMid meet">
<metadata>
Created by potrace 1.15, written by Peter Selinger 2001-2017
</metadata>
<g transform="translate(0.000000,1536.000000) scale(0.100000,-0.100000)"
fill="#000000" stroke="none">
<path d="M4940 11635 c-268 -60 -488 -252 -562 -489 -12 -39 -23 -72 -24 -74
0 -1 -32 5 -70 14 -144 34 -340 0 -484 -83 -101 -59 -210 -175 -259 -275 -41
-84 -71 -180 -71 -229 0 -26 -4 -28 -47 -34 -168 -22 -285 -69 -394 -159 -132
-109 -201 -254 -201 -421 0 -49 3 -122 7 -160 l7 -71 -53 -13 c-145 -38 -302
-153 -391 -290 -68 -105 -90 -179 -95 -331 -7 -194 24 -299 130 -429 47 -59
130 -135 172 -158 18 -11 9 41 155 -883 241 -1534 399 -2525 461 -2900 13 -76
31 -145 46 -176 89 -182 321 -315 730 -417 610 -154 1405 -168 2058 -36 481
96 792 248 886 432 25 47 64 272 414 2362 l272 1630 69 70 c81 82 124 152 173
278 34 89 36 97 35 222 0 114 -3 140 -27 211 -73 219 -236 368 -484 439 -48
14 -89 27 -91 30 -2 2 1 27 8 55 17 71 15 233 -5 305 -47 174 -204 353 -376
429 -61 26 -166 52 -250 62 l-57 6 -7 80 c-13 159 -70 284 -180 394 -77 78
-168 129 -285 160 -79 20 -240 21 -322 1 l-56 -14 -36 71 c-88 179 -283 334
-478 381 -95 23 -241 28 -318 10z m333 -298 c85 -40 156 -100 193 -163 32 -54
52 -154 46 -225 -9 -108 29 -159 117 -159 31 0 50 9 91 41 28 22 75 53 103 67
47 24 63 27 157 27 93 0 112 -3 161 -26 79 -37 133 -90 171 -167 30 -60 33
-77 37 -174 2 -83 -1 -117 -13 -148 -34 -85 -18 -146 47 -180 l45 -24 100 33
c87 29 110 33 170 29 132 -10 258 -92 316 -207 57 -111 51 -291 -14 -433 -38
-83 -17 -168 51 -203 25 -13 47 -15 113 -10 46 4 105 2 138 -4 129 -23 254
-117 306 -228 24 -52 27 -69 27 -168 0 -105 -2 -114 -34 -180 -43 -87 -126
-171 -211 -214 -35 -17 -68 -31 -75 -31 -6 0 -31 44 -55 98 -35 77 -57 110
-106 159 -59 60 -165 123 -206 123 -41 0 -43 6 -40 114 4 115 -9 180 -55 271
-32 63 -142 172 -210 208 -59 31 -188 67 -243 67 l-37 0 5 53 c10 134 -60 311
-167 418 -107 107 -225 153 -379 148 l-83 -3 -34 78 c-51 117 -93 182 -162
246 -231 217 -590 208 -822 -20 -56 -55 -97 -125 -122 -209 -13 -42 -13 -43
-48 -37 -154 27 -317 12 -426 -40 -74 -35 -180 -135 -228 -215 -38 -64 -87
-201 -87 -242 0 -20 -8 -24 -67 -35 -38 -7 -106 -31 -153 -54 -206 -101 -331
-316 -317 -548 l5 -85 -71 -40 c-147 -82 -253 -219 -293 -379 -16 -63 -17 -66
-43 -60 -53 12 -147 62 -193 103 -29 26 -60 67 -80 109 -31 62 -33 74 -33 167
0 91 3 106 31 165 45 95 102 153 190 196 69 34 84 38 189 44 126 6 149 16 193
80 32 48 28 85 -17 158 -93 152 -79 359 32 459 99 89 235 121 377 88 88 -20
160 -15 190 15 29 29 36 104 15 162 -24 68 -18 186 14 251 52 106 173 194 301
217 111 20 212 -5 318 -79 46 -33 72 -43 114 -48 l54 -5 42 47 c46 53 50 69
26 139 -59 173 88 410 301 485 50 18 77 21 161 18 92 -3 109 -7 177 -40z m-5
-897 c103 -46 170 -128 199 -244 14 -58 15 -78 5 -125 -23 -113 -10 -152 57
-172 51 -15 96 -6 155 31 161 102 348 36 401 -142 27 -91 21 -143 -30 -247
-66 -136 -58 -203 29 -236 52 -20 78 -17 161 19 83 35 197 36 271 2 94 -44
142 -133 131 -244 -11 -105 -21 -122 -99 -172 -92 -59 -128 -106 -128 -172 0
-41 5 -54 34 -85 32 -35 37 -37 90 -36 45 1 67 8 113 37 140 85 290 69 344
-37 34 -66 25 -159 -22 -220 -17 -21 -55 -28 -394 -69 -202 -24 -299 -31 -437
-31 -97 1 -181 4 -186 7 -7 4 -2 28 13 64 31 76 55 197 55 274 -1 296 -235
531 -548 551 l-63 4 -37 63 c-48 81 -162 187 -244 228 -165 81 -324 81 -488
-1 -117 -58 -186 -143 -235 -286 l-21 -64 -73 -18 c-119 -30 -176 -62 -261
-145 -123 -119 -170 -227 -170 -389 0 -94 16 -176 50 -253 l20 -45 -72 7
c-200 19 -511 57 -572 70 -76 16 -93 29 -128 105 -40 86 -3 218 82 295 81 73
162 92 257 60 103 -35 183 3 183 87 0 63 -23 103 -85 149 -69 51 -90 93 -81
165 13 114 59 192 145 246 38 25 55 29 113 29 69 0 107 -12 157 -51 66 -52
186 8 198 100 5 36 1 47 -31 88 -20 25 -41 64 -46 85 -25 91 60 245 164 301
34 18 58 22 136 22 84 0 102 -3 152 -28 32 -16 60 -37 63 -48 10 -30 47 -43
99 -35 83 13 126 68 126 160 0 31 11 90 25 134 62 196 248 289 423 212z m-251
-1196 c92 -45 163 -150 163 -241 0 -38 12 -67 43 -100 30 -34 115 -32 174 3
39 22 51 25 96 19 106 -14 192 -73 237 -162 28 -56 39 -173 21 -233 -15 -50
-82 -151 -143 -216 -40 -43 -58 -54 -92 -59 -22 -3 -289 -2 -592 2 l-551 8
-42 29 c-103 72 -177 190 -175 281 4 118 82 235 179 268 59 21 92 21 125 2 14
-8 44 -14 67 -15 96 0 127 37 129 155 2 155 61 255 164 281 70 17 131 10 197
-22z m-1243 -1259 c138 -14 265 -27 282 -30 l31 -5 7 -93 c18 -268 169 -2570
191 -2922 14 -225 29 -456 33 -512 l8 -103 -49 0 c-74 0 -419 92 -462 124 -12
9 -26 109 -65 471 -28 253 -91 825 -140 1270 -115 1040 -188 1717 -192 1778
l-3 47 53 0 c30 0 167 -11 306 -25z m3081 3 c-3 -13 -23 -169 -45 -348 -23
-179 -83 -653 -135 -1055 -52 -401 -131 -1016 -175 -1365 -94 -740 -96 -756
-105 -769 -3 -6 -36 -20 -73 -31 -83 -26 -407 -110 -425 -110 -16 0 -8 127 28
430 14 124 35 326 45 450 11 124 40 455 65 735 25 281 52 589 60 685 26 305
115 1314 118 1330 2 12 53 20 257 41 140 14 285 27 323 28 65 1 67 0 62 -21z
m-1369 -170 c-3 -51 -8 -176 -11 -278 -3 -102 -17 -536 -30 -965 -13 -429 -34
-1093 -45 -1475 -25 -831 -24 -816 -53 -824 -41 -11 -302 -19 -388 -12 l-87 8
-6 306 c-7 298 -29 1766 -42 2807 l-7 514 134 4 c74 1 226 4 337 5 l204 2 -6
-92z"/>
</g>
</svg>
