<?xml version="1.0" standalone="no"?>
<!DOCTYPE svg PUBLIC "-//W3C//DTD SVG 20010904//EN"
 "http://www.w3.org/TR/2001/REC-SVG-20010904/DTD/svg10.dtd">
<svg version="1.0" xmlns="http://www.w3.org/2000/svg"
 width="1024.000000pt" height="1536.000000pt" viewBox="0 0 1024.000000 1536.000000"
 preserveAspectRatio="xMidYMid meet">
<metadata>
Created by potrace 1.15, written by Peter Selinger 2001-2017
</metadata>
<g transform="translate(0.000000,1536.000000) scale(0.100000,-0.100000)"
fill="#000000" stroke="none">
<path d="M5043 11630 c-18 -11 -35 -31 -39 -46 -4 -14 -2 -197 4 -406 12 -427
10 -418 84 -418 38 0 78 27 78 53 0 6 7 178 16 380 17 403 16 415 -37 442 -38
20 -68 19 -106 -5z"/>
<path d="M6541 11053 c-31 -26 -302 -579 -308 -629 -5 -36 -2 -44 22 -62 33
-27 66 -28 93 -4 12 9 95 145 186 302 183 315 188 329 137 381 -35 34 -95 40
-130 12z"/>
<path d="M3581 11014 c-43 -36 -41 -78 5 -162 93 -166 276 -467 292 -478 26
-20 79 -17 102 6 11 11 20 33 20 50 0 34 -271 565 -302 593 -30 25 -81 22
-117 -9z"/>
<path d="M4965 10459 c-109 -18 -213 -75 -296 -162 -53 -55 -114 -164 -125
-223 -5 -28 -10 -34 -23 -28 -89 37 -126 47 -201 51 -261 16 -487 -161 -530
-416 l-11 -69 -55 -11 c-235 -47 -410 -265 -402 -500 l2 -83 -74 -22 c-137
-40 -234 -122 -297 -253 -66 -137 -54 -305 32 -432 l34 -52 -36 -47 c-65 -85
-78 -124 -78 -242 0 -95 3 -110 27 -157 37 -69 78 -114 138 -153 28 -18 52
-42 55 -54 9 -41 144 -793 199 -1106 31 -173 110 -646 176 -1050 168 -1029
154 -955 192 -1030 61 -120 188 -192 463 -260 283 -71 564 -100 979 -100 409
0 709 29 956 91 300 75 449 173 513 336 9 23 48 236 87 475 233 1419 436 2627
455 2713 2 11 25 33 50 48 61 39 119 107 158 186 31 64 32 71 32 191 0 121 -1
127 -33 192 -21 43 -51 84 -87 117 l-55 50 11 52 c6 29 9 86 7 128 -13 203
-139 343 -354 397 -8 2 -8 17 2 55 65 250 -120 533 -384 588 -71 15 -164 14
-233 -3 l-57 -13 -4 72 c-11 172 -152 341 -329 396 -74 23 -196 25 -264 4 -27
-8 -50 -13 -50 -12 -1 1 -16 28 -34 59 -110 195 -346 313 -556 277z m231 -249
c113 -55 177 -163 172 -287 -3 -72 19 -112 70 -127 44 -12 82 6 131 64 27 31
56 54 86 66 149 56 335 -73 335 -233 l0 -33 -62 0 c-85 0 -136 -16 -174 -54
-41 -41 -52 -92 -29 -139 28 -59 81 -72 135 -32 52 39 129 29 171 -21 22 -26
77 -46 110 -39 16 4 49 24 74 44 54 45 102 61 176 61 100 0 207 -69 257 -164
23 -43 27 -63 26 -131 0 -67 -4 -88 -27 -130 -42 -80 -37 -77 -91 -59 -66 23
-184 15 -251 -16 -28 -13 -81 -55 -119 -92 l-69 -69 -56 7 -57 6 -18 65 c-48
167 -183 290 -356 324 -36 7 -66 14 -68 14 -1 1 -9 28 -17 60 -9 32 -27 80
-42 107 -36 65 -130 153 -200 186 -53 24 -69 27 -173 27 -108 0 -119 -2 -180
-31 -73 -35 -148 -97 -180 -149 l-21 -34 -40 14 c-103 37 -209 27 -314 -29
-121 -63 -204 -179 -235 -325 l-16 -76 -54 -8 c-161 -23 -310 -157 -360 -323
-11 -38 -16 -42 -53 -48 -123 -20 -224 -111 -276 -248 -6 -16 -14 -28 -18 -28
-5 0 -43 7 -86 14 -90 16 -114 33 -152 110 -83 167 69 376 259 352 28 -4 72
-9 97 -12 42 -6 47 -4 72 26 36 42 35 86 -4 155 -62 110 -47 221 42 319 67 73
129 99 223 94 51 -3 87 -11 128 -31 72 -34 100 -34 140 2 26 23 32 36 31 66
-1 45 -24 78 -86 125 -42 32 -47 39 -47 76 0 53 41 133 92 179 115 105 261
108 407 10 74 -49 110 -56 166 -29 42 20 63 64 68 145 16 245 249 385 463 279z
m41 -830 c85 -49 130 -151 106 -240 -13 -47 1 -94 35 -120 28 -22 41 -23 140
-4 121 23 259 -78 278 -204 5 -32 1 -69 -11 -117 -19 -80 -14 -102 31 -131 31
-21 80 -14 131 20 81 54 187 39 269 -36 79 -73 94 -176 44 -295 -40 -93 -4
-163 84 -163 23 0 55 -9 74 -20 65 -40 93 -161 52 -227 -32 -54 -68 -65 -238
-76 -173 -12 -205 -5 -243 55 -18 29 -20 43 -14 119 5 83 4 88 -21 118 -34 41
-97 44 -142 6 -52 -43 -67 -164 -34 -261 l18 -52 -45 -6 c-25 -3 -240 -9 -478
-13 -482 -7 -452 -11 -484 64 -18 42 -36 56 -90 67 -81 17 -139 101 -139 199
0 74 22 121 72 154 33 22 45 25 88 19 47 -6 53 -5 80 23 21 20 30 39 30 61 0
40 25 83 60 104 69 40 138 3 165 -89 21 -74 44 -89 128 -80 72 8 110 -5 146
-51 55 -70 46 -141 -28 -219 -68 -72 -68 -125 -1 -160 43 -22 81 -18 133 15
87 55 144 179 134 296 -13 164 -141 302 -297 321 -42 5 -50 10 -61 34 -17 44
-79 102 -135 129 -66 32 -178 34 -245 3 -59 -26 -123 -84 -156 -140 -14 -24
-32 -43 -42 -43 -65 0 -197 -113 -241 -206 -67 -143 -39 -337 64 -452 20 -22
36 -41 36 -43 0 -2 -78 -3 -173 -1 l-172 3 -50 38 c-49 38 -50 39 -50 95 0 51
-3 61 -28 82 -38 32 -92 32 -137 -1 -20 -15 -47 -25 -67 -25 -68 0 -162 70
-203 151 -48 92 -31 220 35 278 51 45 80 49 113 18 43 -41 78 -50 118 -31 51
24 69 65 54 120 -25 87 7 184 80 247 72 61 178 74 236 28 39 -31 89 -28 125 8
34 35 37 66 9 118 -31 58 -28 156 8 224 58 111 183 159 282 109 23 -12 64 -42
90 -66 59 -55 97 -59 141 -15 30 31 36 61 19 105 -12 33 -1 63 42 111 70 80
182 98 275 45z m1659 -574 c28 -13 64 -40 79 -59 35 -47 57 -121 49 -166 -9
-49 -46 -121 -78 -150 -14 -14 -26 -34 -26 -46 0 -31 41 -65 86 -72 54 -8 107
-36 137 -73 26 -31 57 -115 57 -154 0 -44 -23 -99 -57 -136 -58 -65 -119 -88
-301 -114 l-161 -22 7 25 c13 46 7 164 -11 216 -23 68 -82 143 -143 184 -51
33 -52 34 -42 70 6 20 8 71 5 113 -7 100 -48 187 -123 258 l-53 50 37 30 c68
56 145 50 223 -18 24 -21 55 -41 68 -45 56 -14 121 44 121 108 0 22 4 25 38
25 20 0 60 -11 88 -24z m-3558 -679 c29 -10 37 -20 53 -70 35 -104 109 -200
198 -258 l45 -29 -55 0 c-97 0 -283 20 -333 37 -65 21 -132 85 -141 136 -5 23
-3 55 4 78 14 45 69 105 103 112 43 8 93 6 126 -6z m3302 -576 c0 -5 -38 -283
-85 -618 -47 -334 -126 -903 -175 -1263 -174 -1269 -168 -1234 -186 -1247 -30
-22 -336 -84 -350 -71 -2 3 12 166 31 364 19 197 65 663 101 1034 144 1491
172 1763 186 1771 7 5 40 9 73 10 33 0 123 6 200 13 183 17 205 18 205 7z
m-2660 -32 c146 -11 268 -24 272 -27 9 -9 87 -967 183 -2262 19 -261 42 -561
50 -665 8 -105 15 -199 15 -208 0 -13 -9 -17 -39 -17 -85 0 -372 67 -386 90
-6 9 -48 331 -220 1700 -58 459 -121 957 -140 1105 -19 149 -35 278 -35 288 0
21 -18 21 300 -4z m1550 -56 c0 -16 -7 -167 -15 -338 -27 -579 -54 -1189 -70
-1560 -24 -585 -44 -1041 -51 -1152 l-6 -101 -96 -8 c-85 -6 -300 0 -309 9 -3
4 -34 1201 -58 2252 -8 380 -18 741 -21 802 l-6 113 168 3 c93 1 235 4 317 5
l147 2 0 -27z"/>
<path d="M7593 10208 c-100 -87 -419 -373 -430 -386 -31 -38 -1 -104 52 -118
13 -3 37 0 53 8 43 22 478 374 486 393 14 38 6 77 -23 106 -41 41 -88 40 -138
-3z"/>
<path d="M2509 10182 c-26 -23 -32 -36 -32 -71 0 -29 7 -49 19 -61 11 -11 123
-100 249 -199 183 -144 236 -181 261 -181 54 0 99 64 75 108 -12 23 -435 403
-468 420 -36 19 -71 14 -104 -16z"/>
<path d="M7924 8897 c-161 -56 -299 -108 -308 -116 -40 -34 -7 -131 46 -131
42 0 613 151 638 169 84 60 45 183 -57 180 -15 0 -159 -46 -319 -102z"/>
<path d="M1942 8955 c-16 -14 -33 -37 -36 -51 -10 -38 11 -92 43 -108 26 -14
565 -156 590 -156 6 0 23 11 36 25 28 27 33 71 12 99 -14 19 -555 216 -593
216 -12 0 -36 -11 -52 -25z"/>
</g>
</svg>
